<?xml version="1.0" encoding="UTF-8"?>
<svg id="Layer_1" data-name="Layer 1" xmlns="http://www.w3.org/2000/svg" viewBox="0 0 370 410">
  <defs>
    <style>
      .cls-1 {
        fill: #3c82d3;
        stroke-width: 0px;
      }
    </style>
  </defs>
  <path class="cls-1" d="M344.64,99.67L196.4,14.09c-7.05-4.07-15.74-4.07-22.8,0L25.36,99.67c-7.05,4.07-11.4,11.6-11.4,19.74v171.17c0,8.14,4.34,15.67,11.4,19.74l148.24,85.59c7.05,4.07,15.74,4.07,22.8,0l148.24-85.59c7.05-4.07,11.4-11.6,11.4-19.74V119.41c0-8.14-4.34-15.67-11.4-19.74ZM305.32,168.69c0,4-3.24,7.24-7.24,7.24h-45.81c-6.05,0-8.63,7.68-3.82,11.34l54,40.99c1.8,1.37,2.86,3.5,2.86,5.76v72.73c0,4-3.24,7.24-7.24,7.24h-63.74c-4,0-7.24-3.24-7.24-7.24v-65.46c0-4-3.24-7.24-7.24-7.24h-69.75c-4,0-7.24,3.24-7.24,7.24v65.46c0,4-3.24,7.24-7.24,7.24h-63.74c-4,0-7.24-3.24-7.24-7.24v-65.45c0-4,3.24-7.24,7.24-7.24h45.81c6.05,0,8.63-7.68,3.82-11.34l-54-40.99c-1.8-1.37-2.86-3.5-2.86-5.76v-72.73c0-4,3.24-7.24,7.24-7.24h63.74c4,0,7.24,3.24,7.24,7.24v65.45c0,4,3.24,7.24,7.24,7.24h69.75c4,0,7.24-3.24,7.24-7.24v-65.45c0-4,3.24-7.24,7.24-7.24h63.74c4,0,7.24,3.24,7.24,7.24v65.45Z"/>
</svg>
