<?xml version="1.0" encoding="UTF-8"?>
<svg id="Layer_1" data-name="Layer 1" xmlns="http://www.w3.org/2000/svg" viewBox="0 0 1210 260">
  <defs>
    <style>
      .cls-1 {
        fill: #3c82d3;
        stroke-width: 0px;
      }
    </style>
  </defs>
  <path class="cls-1" d="M219.65,65.37L128.69,12.86c-4.33-2.5-9.66-2.5-13.99,0L23.75,65.37c-4.33,2.5-6.99,7.12-6.99,12.11v105.03c0,5,2.67,9.61,6.99,12.11l90.95,52.51c4.33,2.5,9.66,2.5,13.99,0l90.95-52.51c4.33-2.5,6.99-7.12,6.99-12.11v-105.02c0-5-2.67-9.61-6.99-12.11ZM195.52,107.72c0,2.45-1.99,4.44-4.44,4.44h-28.1c-3.71,0-5.3,4.71-2.34,6.96l33.13,25.15c1.11.84,1.75,2.15,1.75,3.54v44.62c0,2.45-1.99,4.44-4.44,4.44h-39.11c-2.45,0-4.44-1.99-4.44-4.44v-40.16c0-2.45-1.99-4.44-4.44-4.44h-42.79c-2.45,0-4.44,1.99-4.44,4.44v40.16c0,2.45-1.99,4.44-4.44,4.44h-39.11c-2.45,0-4.44-1.99-4.44-4.44v-40.16c0-2.45,1.99-4.44,4.44-4.44h28.11c3.71,0,5.3-4.71,2.34-6.96l-33.13-25.15c-1.11-.84-1.75-2.15-1.75-3.54v-44.62c0-2.45,1.99-4.44,4.44-4.44h39.11c2.45,0,4.44,1.99,4.44,4.44v40.16c0,2.45,1.99,4.44,4.44,4.44h42.79c2.45,0,4.44-1.99,4.44-4.44v-40.16c0-2.45,1.99-4.44,4.44-4.44h39.11c2.45,0,4.44,1.99,4.44,4.44v40.16Z"/>
  <g>
    <polygon class="cls-1" points="364.48 119.74 289.95 119.74 289.95 58.97 272.29 58.97 272.29 201.03 289.95 201.03 289.95 135.75 364.48 135.75 364.48 201.03 382.13 201.03 382.13 58.97 364.48 58.97 364.48 119.74"/>
    <path class="cls-1" d="M461.47,184.2c-4.72,2.05-9.89,3.08-15.5,3.08-6.84,0-12.9-1.47-18.17-4.41-5.27-2.94-9.34-7.08-12.21-12.42-1.9-3.53-3.11-7.45-3.76-11.7h77.46c.41-1.92.68-3.66.82-5.24.14-1.57.21-2.98.21-4.21,0-9.17-1.95-17.31-5.85-24.43-3.9-7.12-9.28-12.73-16.12-16.84-6.84-4.11-14.78-6.16-23.81-6.16s-17.76,2.22-25.36,6.67c-7.59,4.45-13.58,10.47-17.96,18.07-4.38,7.6-6.57,16.19-6.57,25.77s2.26,18.24,6.77,25.97c4.52,7.73,10.64,13.79,18.37,18.17,7.73,4.38,16.39,6.57,25.97,6.57,7.66,0,14.89-1.44,21.66-4.31,6.78-2.88,12.42-7.05,16.94-12.52l-10.88-10.88c-3.29,3.83-7.29,6.77-12.01,8.83ZM426.88,121.79c4.93-2.88,10.74-4.31,17.45-4.31,6.29,0,11.67,1.3,16.12,3.9,4.45,2.6,7.83,6.33,10.16,11.19,1.68,3.51,2.73,7.53,3.2,12.01h-61.9c.64-3.94,1.75-7.56,3.47-10.78,2.74-5.13,6.57-9.14,11.5-12.01Z"/>
    <polygon class="cls-1" points="579.21 103.93 559.51 103.93 534.12 139.01 508.18 103.93 487.45 103.93 523.25 151.16 485.8 201.03 505.51 201.03 533.26 163.1 560.53 201.03 581.06 201.03 544.11 150.79 579.21 103.93"/>
    <path class="cls-1" d="M658.46,118.35c-3.56-5.07-8.09-9.07-13.65-11.95-5.82-3.01-12.42-4.52-19.81-4.52-9.03,0-17.14,2.26-24.33,6.77-7.18,4.52-12.87,10.61-17.04,18.27-4.18,7.67-6.26,16.29-6.26,25.87s2.09,17.96,6.26,25.56c4.17,7.59,9.89,13.62,17.14,18.07,7.25,4.45,15.4,6.67,24.43,6.67,7.39,0,13.99-1.51,19.81-4.52,5.55-2.87,10.01-6.87,13.45-11.93v14.4h16.83v-97.11h-16.83v14.42ZM650.87,177.53c-5.75,6.36-13.41,9.55-22.99,9.55-6.43,0-12.15-1.47-17.14-4.41-5-2.94-8.93-7.01-11.81-12.22-2.87-5.2-4.31-11.15-4.31-17.86s1.44-12.86,4.31-18.07c2.88-5.2,6.78-9.27,11.7-12.22,4.93-2.94,10.61-4.41,17.04-4.41s12.04,1.44,16.84,4.31c4.79,2.88,8.48,6.91,11.09,12.11,2.6,5.2,3.9,11.29,3.9,18.27,0,10.27-2.88,18.58-8.62,24.94Z"/>
    <path class="cls-1" d="M765.83,118.39c-3.64-5.08-8.28-9.09-13.96-12-5.89-3.01-12.52-4.52-19.91-4.52-8.9,0-16.9,2.26-24.02,6.77-7.12,4.52-12.76,10.57-16.94,18.17-4.18,7.6-6.26,16.25-6.26,25.97s2.09,17.96,6.26,25.56c4.17,7.59,9.82,13.62,16.94,18.07,7.12,4.45,15.12,6.67,24.02,6.67,7.39,0,14.06-1.54,20.02-4.62,5.69-2.94,10.29-6.95,13.86-11.97v14.53h16.83V54.86h-16.83v63.53ZM762.85,170.44c-2.67,5.2-6.4,9.27-11.19,12.22-4.79,2.94-10.4,4.41-16.83,4.41s-11.91-1.47-16.84-4.41c-4.93-2.94-8.8-7.01-11.6-12.22-2.8-5.2-4.21-11.15-4.21-17.86s1.4-12.86,4.21-18.07c2.8-5.2,6.64-9.27,11.5-12.22,4.86-2.94,10.5-4.41,16.94-4.41s11.84,1.47,16.63,4.41c4.79,2.95,8.55,7.02,11.29,12.22,2.74,5.2,4.11,11.22,4.11,18.07s-1.33,12.66-4,17.86Z"/>
    <path class="cls-1" d="M868.07,108.55c-7.67-4.45-16.22-6.67-25.67-6.67s-17.96,2.26-25.56,6.77c-7.6,4.52-13.65,10.54-18.17,18.07-4.52,7.53-6.77,16.01-6.77,25.46s2.26,18.03,6.77,25.76c4.52,7.74,10.57,13.86,18.17,18.38,7.6,4.52,16.12,6.77,25.56,6.77s18-2.26,25.67-6.77c7.66-4.52,13.72-10.61,18.17-18.27,4.45-7.66,6.67-16.29,6.67-25.87s-2.22-17.96-6.67-25.56c-4.45-7.6-10.51-13.62-18.17-18.07ZM871.35,169.93c-2.87,5.27-6.81,9.41-11.8,12.42-5,3.01-10.71,4.52-17.14,4.52s-11.98-1.5-17.04-4.52c-5.06-3.01-9-7.12-11.8-12.32-2.81-5.2-4.21-11.15-4.21-17.86s1.4-12.42,4.21-17.55c2.8-5.13,6.74-9.17,11.8-12.11,5.06-2.94,10.74-4.41,17.04-4.41s12.15,1.47,17.14,4.41c5,2.95,8.93,6.98,11.8,12.11,2.88,5.13,4.31,10.98,4.31,17.55s-1.44,12.49-4.31,17.76Z"/>
    <path class="cls-1" d="M910.94,177.42c-3.7,0-6.74,1.23-9.13,3.7-2.4,2.46-3.59,5.54-3.59,9.24,0,3.42,1.2,6.4,3.59,8.93,2.39,2.53,5.44,3.8,9.13,3.8s6.54-1.27,8.93-3.8c2.39-2.53,3.59-5.51,3.59-8.93,0-3.7-1.2-6.78-3.59-9.24-2.39-2.46-5.37-3.7-8.93-3.7Z"/>
    <path class="cls-1" d="M1009.97,108.65c-7.12-4.52-15.12-6.77-24.02-6.77-7.25,0-13.82,1.51-19.71,4.52-5.74,2.93-10.45,6.99-14.17,12.14v-14.6h-16.83v137.96h16.83v-55.52c3.64,5.08,8.28,9.13,13.96,12.1,5.88,3.08,12.52,4.62,19.91,4.62,8.9,0,16.94-2.22,24.12-6.67,7.18-4.45,12.83-10.47,16.94-18.07,4.11-7.6,6.16-16.12,6.16-25.56s-2.09-18.37-6.26-25.97c-4.18-7.6-9.82-13.65-16.94-18.17ZM1011.72,170.44c-2.81,5.2-6.67,9.27-11.6,12.22-4.93,2.94-10.61,4.41-17.04,4.41s-11.88-1.47-16.73-4.41c-4.86-2.94-8.62-7.01-11.29-12.22-2.67-5.2-4-11.15-4-17.86s1.37-12.86,4.11-18.07c2.74-5.2,6.53-9.27,11.39-12.22,4.86-2.94,10.44-4.41,16.73-4.41s11.91,1.47,16.84,4.41c4.93,2.95,8.79,7.02,11.6,12.22,2.8,5.2,4.21,11.22,4.21,18.07s-1.4,12.66-4.21,17.86Z"/>
    <path class="cls-1" d="M1186.57,126.61c-4.45-7.6-10.51-13.62-18.17-18.07-7.67-4.45-16.22-6.67-25.67-6.67s-17.96,2.26-25.56,6.77c-7.6,4.52-13.65,10.54-18.17,18.07-4.52,7.53-6.77,16.01-6.77,25.46s2.26,18.03,6.77,25.76c4.52,7.74,10.57,13.86,18.17,18.38,7.6,4.52,16.12,6.77,25.56,6.77s18-2.26,25.67-6.77c7.66-4.52,13.72-10.61,18.17-18.27,4.45-7.66,6.67-16.29,6.67-25.87s-2.22-17.96-6.67-25.56ZM1171.68,169.93c-2.87,5.27-6.81,9.41-11.8,12.42-5,3.01-10.71,4.52-17.14,4.52s-11.98-1.5-17.04-4.52c-5.06-3.01-9-7.12-11.8-12.32-2.81-5.2-4.21-11.15-4.21-17.86s1.4-12.42,4.21-17.55c2.8-5.13,6.74-9.17,11.8-12.11,5.06-2.94,10.74-4.41,17.04-4.41s12.15,1.47,17.14,4.41c5,2.95,8.93,6.98,11.8,12.11,2.88,5.13,4.31,10.98,4.31,17.55s-1.44,12.49-4.31,17.76Z"/>
    <path class="cls-1" d="M1042.61,151.55v49.48h16.83v-49.48c0-17.01,13.79-30.79,30.79-30.79v-16.83h0c-26.3,0-47.63,21.32-47.63,47.63Z"/>
  </g>
</svg>
